<svg xmlns="http://www.w3.org/2000/svg" xmlns:xlink="http://www.w3.org/1999/xlink" viewBox="0 0 203.98 34.7"><defs><style>.cls-1{fill:none;}.cls-2{isolation:isolate;}.cls-3{clip-path:url(#clip-path);}.cls-4{fill:#070c04;}.cls-11,.cls-5,.cls-6,.cls-9{opacity:0.3;}.cls-10,.cls-11,.cls-13,.cls-5,.cls-6,.cls-7{mix-blend-mode:multiply;}.cls-6{fill:#587a25;}.cls-7,.cls-9{fill:#2b3a0d;}.cls-10,.cls-7{opacity:0.4;}.cls-8{fill:#1f330e;}.cls-9{mix-blend-mode:screen;}.cls-10{fill:#010201;}.cls-11,.cls-12,.cls-13{fill:#394409;}.cls-13{opacity:0.5;}</style><clipPath id="clip-path" transform="translate(2.53 -13.95)"><rect class="cls-1" width="200" height="47.28"/></clipPath></defs><g class="cls-2"><g id="Layer_1" data-name="Layer 1"><g class="cls-3"><path d="M195.94,14c-4.15-.06-8.25,0-12.19,1.53S176.15,19,172,19.69c-4.37.78-8.79.61-13.2.83-4.67.23-9.35.08-14,0s-9.23-.15-13.83.09a106,106,0,0,0-14.2,1.77c-9,1.67-17.85,3.05-27,2.8-9.56-.26-19.06-1.34-28.6-1.92a102.22,102.22,0,0,0-13.89-.15c-4.28.31-8.75.93-13,.34-4.76-.65-9.52-1.33-14.3-1.72-3.6-.3-7.21-.36-10.8-.84A34.69,34.69,0,0,1-2.53,17.57V48.65h204V14C199.61,14,197.77,14,195.94,14Z" transform="translate(2.53 -13.95)"/><path class="cls-4" d="M195.94,14c-4.15-.06-8.25,0-12.19,1.53S176.15,19,172,19.69c-4.37.78-8.79.61-13.2.83-4.67.23-9.35.08-14,0s-9.23-.15-13.83.09a106,106,0,0,0-14.2,1.77c-9,1.67-17.85,3.05-27,2.8-9.56-.26-19.06-1.34-28.6-1.92a102.22,102.22,0,0,0-13.89-.15c-4.28.31-8.75.93-13,.34-4.76-.65-9.52-1.33-14.3-1.72-3.6-.3-7.21-.36-10.8-.84A34.69,34.69,0,0,1-2.53,17.57V48.65h204V14C199.61,14,197.77,14,195.94,14Z" transform="translate(2.53 -13.95)"/><path class="cls-5" d="M195.94,14c-4.15-.06-8.25,0-12.19,1.53-.85.31-1.69.66-2.53,1q1.75-.13,3.51-.3a78.12,78.12,0,0,1,9.79-.4c.12,0,.13.15,0,.2-3.4,1.39-6.88,2.56-10.37,3.72,1.81.15,3.62.17,5.43.17a.1.1,0,0,1,0,.2l-.71.28c-11.8,4.55-24.6,4-37,2.79-.11,0-.15-.17,0-.2,1.43-.37,2.84-.82,4.25-1.24-2.7,0-5.4-.19-8.11-.2a.1.1,0,0,1,0-.2c.88-.26,1.77-.49,2.66-.7-2,0-3.94-.06-5.91-.09-4.61-.08-9.23-.15-13.83.09-1.91.09-3.81.26-5.69.47q-1.32.39-2.64.81c-2.9.93-5.78,1.94-8.73,2.68a93.13,93.13,0,0,1-9.22,1.63c-3.19.49-6.4.92-9.62,1.13a64.22,64.22,0,0,1-9.61-.13c-10-.85-19.84-3.38-29.84-4.22a81,81,0,0,0-8.39.13,78.87,78.87,0,0,1-11.5.5c-1.38.09-2.76.19-4.14.33-2.78.27-5.55.69-8.35.81a64,64,0,0,1,8.28,1.47c.12,0,.08.19,0,.2-.88.12-1.74.27-2.6.45-4.6.93-9.13,2.23-13.8,2.79-4.17.5-8.95.58-12.5-2a.1.1,0,0,1,.05-.19,38.78,38.78,0,0,0,5-.95C6.2,25.72,4.54,25.32,3,24.58a.11.11,0,0,1,.06-.2h8.29C8,21.85,3.53,21.61,0,19.46a.1.1,0,0,1,0-.18c.33-.08.66-.15,1-.2a25.42,25.42,0,0,1-3.51-1.51V48.65h204V14C199.61,14,197.77,14,195.94,14Z" transform="translate(2.53 -13.95)"/><path class="cls-6" d="M201.19,19.14a56,56,0,0,0-9.05,2.17c-4,1.18-8.14,2.37-12.26,3.21A63.81,63.81,0,0,1,167,25.65c-8.93,0-17.79-1.07-26.66-2a65.07,65.07,0,0,0-12.4-.33c-4.41.39-8.67,1.66-13,2.54-4.06.82-8.14,1.49-12.16,2.46a30.66,30.66,0,0,1-6.2,1.05c1.67.33,3.35.65,5,1,1.32.24,2.64.43,3.95.73,2.53.57,5.05,1.24,7.62,1.61,2.15.3,5,.7,6.9-.72.1-.08.2.09.1.17-1.49,1.14-3.67,1.09-5.44.93a48.5,48.5,0,0,1-6.87-1.24c-2.26-.53-4.51-.95-6.79-1.37q-2.85-.54-5.69-1.11a8.76,8.76,0,0,1-2.1-.4c-1-.19-1.91-.37-2.86-.53-4.09-.73-8.21-1.17-12.33-1.58S70,25.93,65.93,25.67a135.27,135.27,0,0,0-24.31.81c-4.11.49-8.2,1.11-12.27,1.82q-3,.54-6,1.12c-2,.4-4,.88-6,1.16-3.83.53-7.67.09-11.49-.23-2.79-.23-5.58-.68-8.37-.86V48.65h204V19.11Z" transform="translate(2.53 -13.95)"/><path class="cls-7" d="M148.77,35h-.34a.1.1,0,0,1-.05-.19l.48-.29-.22.08c-.27.2-.54.42-.8.65Z" transform="translate(2.53 -13.95)"/><path class="cls-8" d="M192.73,22.54c-4.45.71-8.82,1.85-13.27,2.6-9.05,1.52-18.31,1.27-27.42.57s-18.4-2.25-27.57-1.49c-8.7.72-17.18,2.93-25.84,3.93-9.17,1.07-18.34.2-27.5-.53s-18.43-1.1-27.68.07c-9.06,1.14-18,3-27.1,4-6.3.65-12.59,0-18.88-.29V48.65h204V22A49.94,49.94,0,0,0,192.73,22.54Z" transform="translate(2.53 -13.95)"/><path class="cls-9" d="M31,30a.1.1,0,0,1,.05.19A12.94,12.94,0,0,1,27,31.62a50.73,50.73,0,0,0,9.93-.28.1.1,0,0,1,.06.19,21,21,0,0,1-3.55,1.06,45.47,45.47,0,0,0,10.63-1.35.11.11,0,0,1,.08.19c-.43.24-.86.46-1.26.73,2.72,0,5.3-1,7.95-1.57a48.32,48.32,0,0,1,8.25-.36c-.81-.24-1.62-.46-2.44-.63a.1.1,0,0,1,0-.2,131.31,131.31,0,0,1,14.58.7c-.33-.14-.66-.28-1-.4-.1,0-.1-.21,0-.2,2.67.29,5.37.31,8,.4a4.15,4.15,0,0,0-1-.49c-.32-.06-.64-.14-1-.22-.13,0-.07-.22.06-.2a4.88,4.88,0,0,1,.95.23,22.84,22.84,0,0,0,8.12,0c.92-.15,1.83-.33,2.74-.54-5.71-.06-11.41-.56-17.11-1-9.26-.73-18.43-1.1-27.68.07-3.59.45-7.17,1-10.74,1.6-1,.28-1.93.54-2.9.77C30.21,30.05,30.6,30,31,30Z" transform="translate(2.53 -13.95)"/><path class="cls-9" d="M99.31,29.19c.11,0,.14.18,0,.2-2.75.68-5.58.91-8.36,1.38a8.29,8.29,0,0,0,3,.47.1.1,0,0,1,.05.19,8.66,8.66,0,0,1-3.52.72,40.22,40.22,0,0,0,6.72,1.91,18.74,18.74,0,0,0,5.17-.76,20.48,20.48,0,0,0-2.18-.43c-.13,0-.13-.21,0-.2a108.7,108.7,0,0,0,11.56.31c.12,0,.13.16,0,.2-.71.25-1.44.46-2.17.66,3.18-.33,6.38-.47,9.56-.83,3.42-.38,6.94-1.1,10.38-.65.09,0,.16.14,0,.19-.7.34-1.43.6-2.15.88,3.72-.36,7.38-1.18,11.1-1.58.11,0,.12.14,0,.19a9.06,9.06,0,0,1-1.34.79c4-1.21,7.88-2.74,12-3.62-1.14,0-2.27.08-3.41.08a.1.1,0,0,1,0-.2A63.48,63.48,0,0,1,155.34,28c-1.21-.32-2.49-.31-3.7-.66a.1.1,0,0,1,0-.2c3.1-.09,6.23.26,9.32-.14-1.17-.32-2.34-.61-3.49-1-1.83-.09-3.65-.21-5.46-.35-9.13-.7-18.4-2.25-27.57-1.49-6.86.57-13.59,2.06-20.38,3.16-2.75.66-5.49,1.37-8.25,2C97,29.39,98.15,29.2,99.31,29.19Z" transform="translate(2.53 -13.95)"/><path class="cls-10" d="M195.46,22.2c.55,0,1.11.09,1.67.17a8,8,0,0,1,2.92.79c.69.39,1.38,1.35.48,1.95a4.72,4.72,0,0,1-2,.59,23.34,23.34,0,0,1-2.64.13c-2.59,0-5.19.07-7.79.17-2.28.08-4.53.55-6.8.79-4.95.85-9.85,2-14.71,3.28-4.43,1.19-8.81,2.58-13.22,3.85a16,16,0,0,1-3.41.95c-.8.22-1.61.43-2.41.63a.11.11,0,0,1-.1-.18c.2-.19.41-.38.63-.56-2.48.91-4.93,2-7.58,2a.1.1,0,0,1-.06-.19c.44-.21-9.68,1.9-15.28,2.24a97.07,97.07,0,0,1-9.8,0c-1.43-.06-2.87-.12-4.29-.23a8.22,8.22,0,0,1-3.42-.77c-.1,0,0-.18,0-.19l1-.11c-.57-.06-1.13-.13-1.7-.21-1.22-.16-2.43-.34-3.64-.56-2.54-.45-5.06-1-7.57-1.54a118.31,118.31,0,0,0-19.15-3.1,144.06,144.06,0,0,0-19.6.26C50.36,33,43.74,34,37.07,34.24c-3.25.13-6.52.13-9.77.11a53.35,53.35,0,0,1-9.53-.76.11.11,0,0,1,0-.2,23.6,23.6,0,0,0,2.53-.51,12.23,12.23,0,0,1-2.42-.11c-.13,0-.08-.19,0-.2A71,71,0,0,0,27,30.84c-1.13,0-2.27.09-3.4.09a.1.1,0,0,1,0-.2q-3.61.54-7.24.92c-6.3.65-12.59,0-18.88-.29V48.65h204V22A59.63,59.63,0,0,0,195.46,22.2Z" transform="translate(2.53 -13.95)"/><path class="cls-11" d="M142.79,37.38a19.66,19.66,0,0,0,4.36-1.11C145.7,36.65,144.25,37,142.79,37.38Z" transform="translate(2.53 -13.95)"/><path class="cls-12" d="M174.45,29.12c-8.83,1.72-17.39,4.47-26.06,6.82-8.47,2.29-17.12,4.24-25.94,4.27s-17.3-1.33-25.84-2.84C87.79,35.81,78.93,34.06,70,33.69c-9.43-.39-18.9.69-28.3,1.28-9.11.58-18.16.8-27.19-.74-5.66-1-11.3-2.24-17-2.89V48.65h204V27A130.54,130.54,0,0,0,174.45,29.12Z" transform="translate(2.53 -13.95)"/><path class="cls-11" d="M189.73,27.23c1.52.27,3,.6,4.54.93a14.67,14.67,0,0,1,5.42,2,.1.1,0,0,1,0,.18c-3.9,1-8.18,1-11.79,3,2.09.3,4.25-.32,6.27.44.08,0,.12.17,0,.19-2,.25-3.68.9-5.5,1.06a31.18,31.18,0,0,0-5.87,1.19,9.66,9.66,0,0,1,4.19.29.1.1,0,0,1,0,.19,47.7,47.7,0,0,1-6.16,1.26,8.36,8.36,0,0,1,2.34-.09c.09,0,.1.15,0,.19A37,37,0,0,1,176,40.32c-2.48.69-5,1.61-7.66,1.11a.11.11,0,0,1,0-.19l.22-.14c-1.36.36-2.73.67-4.12.92-1.09.2-2.18.42-3.28.58a5.24,5.24,0,0,1-2.55-.08.11.11,0,0,1,0-.19,11.85,11.85,0,0,0,1.51-1.22c-2.89.82-5.52,2.43-8.52,2.91-.1,0-.18-.1-.1-.17A11.92,11.92,0,0,1,153,42.77c-3.8.51-7.4,2.3-11.3,2a.1.1,0,0,1,0-.2,33.67,33.67,0,0,0,11.86-4.51c-.82.15-1.6.47-2.43.55a.1.1,0,0,1-.05-.19c1-.52,2-1,3-1.44-3,.39-5.93,1.2-9,1.15-.09,0-.15-.14-.05-.19.92-.41,1.91-.67,2.8-1.13a22.29,22.29,0,0,1-3.16.23.1.1,0,0,1,0-.2c2.17-.6,4.22-1.54,6.33-2.32a11.14,11.14,0,0,1-2.08.14c-.11,0-.14-.17,0-.2a59.24,59.24,0,0,0,9-3.19c-3.17.89-6.33,1.81-9.51,2.67-8.47,2.29-17.12,4.24-25.94,4.27a116.64,116.64,0,0,1-17.89-1.52,14.94,14.94,0,0,0,2.54.68,34.68,34.68,0,0,0,5.74.83c.11,0,.15.18,0,.2a13.38,13.38,0,0,1-4.46.19,31.26,31.26,0,0,0,3.23.64c.11,0,.09.16,0,.2-2.39.84-5.13.38-7.62-.23a15.62,15.62,0,0,1,3.15,1.68.1.1,0,0,1,0,.18c-3.85,1-7.78-.27-11.45-1.67a6.14,6.14,0,0,1,1.36,1.52c0,.05,0,.14-.07.15a5,5,0,0,1-1.28,0,4.14,4.14,0,0,1,.38.35.1.1,0,0,1,0,.17,22.8,22.8,0,0,1-5.47.5c-.62,0-1.3,0-2,0l.2.19a.1.1,0,0,1-.07.17c-1.48-.19-3-.19-4.54-.34l.23.15a.11.11,0,0,1-.08.19c-1.54-.23-3.1-.29-4.64-.56A10.16,10.16,0,0,1,77,43.11a4.81,4.81,0,0,1,.47.62.1.1,0,0,1-.12.15,19.33,19.33,0,0,1-2.47-.71,4.11,4.11,0,0,1,.28.65.1.1,0,0,1-.1.13,4.46,4.46,0,0,1-2.25-.57,6.83,6.83,0,0,0-2.47-1c-2-.17-3.85.94-5.85,1a.1.1,0,0,1,0-.19c.45-.3.92-.55,1.4-.81-2.88.45-5.75.95-8.64,1.34a.1.1,0,0,1-.07-.17c.43-.39.88-.75,1.34-1.1-.93.31-1.88.53-2.79.92-.1,0-.21-.08-.12-.16a14.58,14.58,0,0,1,4-2.7,25.55,25.55,0,0,0-6,1.76c-.08,0-.2,0-.14-.13.22-.32.48-.61.73-.91a23.4,23.4,0,0,0-4.43,1.2,11.56,11.56,0,0,1-4.05,1.09c-.08,0-.15-.12-.07-.18a13.57,13.57,0,0,1,1.18-.8c-4.31,1-8.66,2.12-13.11,2.07-.08,0-.15-.12-.07-.18a5.68,5.68,0,0,1,.83-.55,17.61,17.61,0,0,1-4.81,0,.11.11,0,0,1-.05-.17,7.59,7.59,0,0,1,1.06-.63c-.42,0-.84.07-1.26.12-.1,0-.13-.14-.05-.19a29.83,29.83,0,0,1,5.78-2.56c-1.23.13-2.46.24-3.69.32-1.88.12-3.77,0-5.65.18-.11,0-.13-.14-.05-.19a17.89,17.89,0,0,1,2.92-1.5,14.63,14.63,0,0,0-4.07.19c-.11,0-.19-.13-.08-.19a7.48,7.48,0,0,1,1.49-.63c-3.26-.05-6.64-.27-9.73.89-.11,0-.17-.13-.08-.19.4-.26.78-.54,1.18-.79a9.26,9.26,0,0,1-3.67,0,.1.1,0,0,1,0-.18c.34-.16.69-.29,1-.43-2-.44-4.17.12-6.23.07a.1.1,0,0,1-.07-.17,7.94,7.94,0,0,1,1.83-1.23c-.5,0-1,0-1.49,0-.11,0-.14-.18,0-.2.47-.1.94-.22,1.42-.29a12.24,12.24,0,0,1-4.17-1.64.1.1,0,0,1,.05-.19L12.88,34h.42C8,33.09,2.77,32-2.53,31.34V48.65h204V27C197.54,26.93,193.63,27,189.73,27.23Z" transform="translate(2.53 -13.95)"/><path class="cls-13" d="M141.75,46.27c-.09,0-.15-.14-.05-.19a5.29,5.29,0,0,1,1.18-.4c-1.17-.07-2.34,0-3.51-.12a5.07,5.07,0,0,1-3.21-1,.11.11,0,0,1,0-.18,63.83,63.83,0,0,0,11.27-3.12c-2.19-.26-4.43.38-6.56-.36-.08,0-.12-.15,0-.19.5-.21,1-.38,1.52-.61a8.58,8.58,0,0,1-2.58-.09c-.11,0-.09-.16,0-.19,1.89-.8,4-1,5.82-2.07-1,0-2,0-3.07-.12a.1.1,0,0,1-.08-.16,88.05,88.05,0,0,1-20,2.76c-2.51,0-5-.1-7.51-.29.42.15.83.32,1.23.5.09,0,0,.16,0,.19A8.56,8.56,0,0,1,114,41c1.24.26,2.52.27,3.76.55a.11.11,0,0,1,0,.19c-2,1-4.29,1-6.46,1.38a5.42,5.42,0,0,1,.73.35.11.11,0,0,1,0,.19c-1.92.47-3.92.12-5.88.13.75.42,1.59.61,2.36,1,.1,0,0,.19,0,.2-4.74.47-9.51.84-14.27.86-1.23.13-2.45.26-3.66.47,2,.38,4,.49,5.89.92a.1.1,0,0,1,0,.2,48.93,48.93,0,0,1-7.34.92l-4.7.3h56.24a.1.1,0,0,1,.06-.13c3-.88,6.05-1.5,9-2.55A62.53,62.53,0,0,1,141.75,46.27Z" transform="translate(2.53 -13.95)"/><path class="cls-13" d="M39.71,48.09a30.51,30.51,0,0,1-4.48-.46c-.1,0-.09-.14,0-.19a5.24,5.24,0,0,1,1.51-.67c-1.22,0-2.45,0-3.67.1s-2.51.5-3.74.22c-.08,0-.11-.16,0-.19.52-.22,1.08-.37,1.59-.62a9.06,9.06,0,0,0-2.44,0,20.4,20.4,0,0,1-2.71.07,51.32,51.32,0,0,1-5.4-.48c-2.78-.41-5.92-.54-8.29-2.22a.11.11,0,0,1,0-.18,19,19,0,0,1,3.82-1.59c-1.51-.16-3,.44-4.52.28a.1.1,0,0,1-.05-.19,13.13,13.13,0,0,1,1.57-.92A37.61,37.61,0,0,1,9,41.21a20.83,20.83,0,0,1-3.86-.51c-1.71-.37-3.93-.7-5.08-2.16a.1.1,0,0,1,0-.16c1.75-.8,3.78-.52,5.66-.72-.52-.2-1-.39-1.57-.61-.08,0,0-.17,0-.18a9.09,9.09,0,0,1,2-.21C4.54,36,2.81,35.49,1.14,34.81a.1.1,0,0,1,0-.19,20.76,20.76,0,0,1,3.24-.38C4,34,3.4,33.86,3,33.58a.11.11,0,0,1,0-.19,13,13,0,0,1,4.3-.48C4,32.3.75,31.72-2.53,31.34V48.65H44.53C42.93,48.41,41.33,48.18,39.71,48.09Z" transform="translate(2.53 -13.95)"/><path class="cls-13" d="M197.54,32.52c.75.19,1.52.23,2.26.46a.1.1,0,0,1,0,.19c-1,.45-2.07.72-3,1.26,1.1.41,2.39-.09,3.43.6a5.88,5.88,0,0,1-1.72.8,14.87,14.87,0,0,0-2.16.74,45.2,45.2,0,0,0-4.56,2.16,79.26,79.26,0,0,1-8,4.07,21.09,21.09,0,0,1,3.17-.28c.09,0,.15.12.08.18a13.62,13.62,0,0,1-1.87,1c1.22-.11,2.44-.55,3.66-.25a.11.11,0,0,1,0,.19,14,14,0,0,1-4.15,1.4,30.61,30.61,0,0,1-5.14.64c-3.49.2-7.05,0-10.51.57a8.52,8.52,0,0,0,2.36.4.1.1,0,0,1,0,.2A24.35,24.35,0,0,1,166,48.06c-1.46.18-2.91.38-4.36.59h39.84v-17A19.21,19.21,0,0,0,197.54,32.52Z" transform="translate(2.53 -13.95)"/></g></g></g></svg>